<?xml version="1.0"?><svg version="1.2" baseProfile="tiny-ps" viewBox="0 0 300 300" xmlns="http://www.w3.org/2000/svg" xmlns:xlink="http://www.w3.org/1999/xlink"><title>OneTech</title><g><g fill="#74cfdf" transform="matrix(.1 0 0 -.1 0 300)"><path d="M375 2516c-22-7-58-22-79-33l-39-20 34-7 34-6 584-415c321-228 587-415 591-415s270 187 591 415l584 414 35 3 35 3-70 35-70 35-1095 2-1095 2-40-13zm-210-150c-15-19-36-59-48-88l-22-53-3-688-3-688 11-56c11-60 46-143 78-182l20-24-2 41-1 42 30 29c42 40 944 682 976 694l25 10 27-7c15-3 36-15 47-26l20-20v-78l-17-21c-10-11-236-176-503-367L315 538l-33 4-33 4 23-18c13-10 52-27 87-38l63-20h2156l63 20c35 11 75 29 88 39l25 19-26-5-26-5-23 13c-54 28-956 674-986 705l-33 34v20c0 29 27 77 49 90 11 5 33 10 49 10h29l484-345c266-190 495-357 509-371l25-24-1-42-2-41 20 24c32 39 67 122 78 182l11 56-3 688-3 688-22 55c-13 31-35 71-51 89l-28 34v-74l-29-28c-17-16-300-222-630-457l-600-428-40-4-40-3-610 436c-335 240-621 447-634 460l-25 24v36c0 19-1 35-2 35-2 0-15-15-29-34z"/></g><g fill="#00a7bd" transform="matrix(.1 0 0 -.1 0 300)"><path d="M165 2366c-15-19-36-59-48-88l-22-53-3-688-3-688 11-56c11-60 46-143 78-182l20-24-2 41-1 42 30 29c42 40 944 682 976 694l25 10 27-7c15-3 36-15 47-26l20-20v-78l-17-21c-10-11-236-176-503-367L315 538l-33 4-33 4 23-18c13-10 52-27 87-38l63-20h2156l63 20c35 11 75 29 88 39l25 19-26-5-26-5-23 13c-54 28-956 674-986 705l-33 34v20c0 29 27 77 49 90 11 5 33 10 49 10h29l484-345c266-190 495-357 509-371l25-24-1-42-2-41 20 24c32 39 67 122 78 182l11 56-3 688-3 688-22 55c-13 31-35 71-51 89l-28 34v-74l-29-28c-17-16-300-222-630-457l-600-428-40-4-40-3-610 436c-335 240-621 447-634 460l-25 24v36c0 19-1 35-2 35-2 0-15-15-29-34z"/></g></g></svg>